# xmcd CD database file
#
# Track frame offsets:
#	150
#	36880
#	77625
#	114355
#	147370
#	196112
#
# Disc length: 3248 seconds
#
# Revision: 3
# Processed by: cddbd v1.5.2PL0 Copyright (c) Steve Scherf et al.
# Submitted via: CDex 1.51
#
DISCID=460cae06
DTITLE=Pauer, Fritz Pauer Trio - Peruvian Impressions - Live at the Jazzspelunke, Vienna - Vol. 2 - Peruvian Impressions - Live at the Jazzspelunke, Vienna - Vol. 2
DYEAR=1991
DGENRE=Jazz
TTITLE0=Selva Song
TTITLE1=Peña Criollo
TTITLE2=Selva Sounds
TTITLE3=Palomita Blanca
TTITLE4=Santanas Flight
TTITLE5=Judgement of a Certain Kind
EXTD=rec.12.12.1991 YEAR: 1991
EXTT0=
EXTT1=
EXTT2=
EXTT3=
EXTT4=
EXTT5=
PLAYORDER=
